<?xml version="1.0" encoding="utf-8"?>
<!-- Generator: Adobe Illustrator 22.1.0, SVG Export Plug-In . SVG Version: 6.00 Build 0)  -->
<svg version="1.1" id="Layer_1" xmlns="http://www.w3.org/2000/svg" xmlns:xlink="http://www.w3.org/1999/xlink" x="0px" y="0px"
	 viewBox="0 0 200 200" style="enable-background:new 0 0 200 200;" xml:space="preserve">
<style type="text/css">
	.st0{fill:#801637;}
	.st1{fill:#FFFFFF;}
</style>
<ellipse transform="matrix(0.7071 -0.7071 0.7071 0.7071 -41.4214 100)" class="st0" cx="100" cy="100" rx="86.7" ry="86.7"/>
<path class="st1" d="M146.7,149.3h-4.4V48.9c0-2.9-2.4-5.3-5.3-5.3H63c-2.9,0-5.3,2.4-5.3,5.3v100.4h-4.4c-1.5,0-2.6,1.2-2.6,2.6
	v4.4h98.7V152C149.3,150.5,148.2,149.3,146.7,149.3z M78.9,60.4c0-1.5,1.2-2.6,2.6-2.6h8.8c1.5,0,2.6,1.2,2.6,2.6v8.8
	c0,1.5-1.2,2.6-2.6,2.6h-8.8c-1.5,0-2.6-1.2-2.6-2.6V60.4z M78.9,81.5c0-1.5,1.2-2.6,2.6-2.6h8.8c1.5,0,2.6,1.2,2.6,2.6v8.8
	c0,1.5-1.2,2.6-2.6,2.6h-8.8c-1.5,0-2.6-1.2-2.6-2.6V81.5z M90.3,114.1h-8.8c-1.5,0-2.6-1.2-2.6-2.6v-8.8c0-1.5,1.2-2.6,2.6-2.6h8.8
	c1.5,0,2.6,1.2,2.6,2.6v8.8C93,112.9,91.8,114.1,90.3,114.1z M107,149.3H93v-18.5c0-1.5,1.2-2.6,2.6-2.6h8.8c1.5,0,2.6,1.2,2.6,2.6
	V149.3z M121.1,111.5c0,1.5-1.2,2.6-2.6,2.6h-8.8c-1.5,0-2.6-1.2-2.6-2.6v-8.8c0-1.5,1.2-2.6,2.6-2.6h8.8c1.5,0,2.6,1.2,2.6,2.6
	V111.5z M121.1,90.3c0,1.5-1.2,2.6-2.6,2.6h-8.8c-1.5,0-2.6-1.2-2.6-2.6v-8.8c0-1.5,1.2-2.6,2.6-2.6h8.8c1.5,0,2.6,1.2,2.6,2.6V90.3
	z M121.1,69.2c0,1.5-1.2,2.6-2.6,2.6h-8.8c-1.5,0-2.6-1.2-2.6-2.6v-8.8c0-1.5,1.2-2.6,2.6-2.6h8.8c1.5,0,2.6,1.2,2.6,2.6V69.2z"/>
</svg>
